HIERARCHY
ROOT Hips
{
	OFFSET	0.00	0.00	0.00
	CHANNELS 6 Xposition Yposition Zposition Zrotation Xrotation Yrotation
	JOINT LeftUpLeg
	{
		OFFSET	 0.126116	-0.014019	-0.065224
		CHANNELS 3 Zrotation Xrotation Yrotation
		JOINT LeftLeg
		{
			OFFSET	 0.000000	 0.000000	 0.569914
			CHANNELS 3 Zrotation Xrotation Yrotation
			JOINT LeftFoot
			{
				OFFSET	 0.000000	 0.000000	 0.544423
				CHANNELS 3 Zrotation Xrotation Yrotation
				JOINT LeftToeBase
				{
					OFFSET	 0.000000	 0.000000	 0.207117
					CHANNELS 3 Zrotation Xrotation Yrotation
					End Site
					{
						OFFSET	 0.000000	 0.000000	 0.207117
					}
				}
			}
		}
	}
	JOINT RightUpLeg
	{
		OFFSET	-0.124023	-0.008373	-0.065224
		CHANNELS 3 Zrotation Xrotation Yrotation
		JOINT RightLeg
		{
			OFFSET	 0.000000	 0.000000	 0.570047
			CHANNELS 3 Zrotation Xrotation Yrotation
			JOINT RightFoot
			{
				OFFSET	 0.000000	 0.000000	 0.544354
				CHANNELS 3 Zrotation Xrotation Yrotation
				JOINT RightToeBase
				{
					OFFSET	 0.000000	 0.000000	 0.207540
					CHANNELS 3 Zrotation Xrotation Yrotation
					End Site
					{
						OFFSET	 0.000000	 0.000000	 0.207540
					}
				}
			}
		}
	}
	JOINT Spine
	{
		OFFSET	 0.000184	-0.007763	 0.117403
		CHANNELS 3 Zrotation Xrotation Yrotation
		JOINT Spine1
		{
			OFFSET	 0.000000	 0.000000	 0.137269
			CHANNELS 3 Zrotation Xrotation Yrotation
			JOINT Spine2
			{
				OFFSET	 0.000000	 0.000000	 0.156879
				CHANNELS 3 Zrotation Xrotation Yrotation
				JOINT LeftShoulder
				{
					OFFSET	 0.080501	-0.002496	 0.160144
					CHANNELS 3 Zrotation Xrotation Yrotation
					JOINT LeftArm
					{
						OFFSET	 0.000000	 0.000000	 0.164363
						CHANNELS 3 Zrotation Xrotation Yrotation
						JOINT LeftForeArm
						{
							OFFSET	 0.000000	 0.000000	 0.364576
							CHANNELS 3 Zrotation Xrotation Yrotation
							JOINT LeftHand
							{
								OFFSET	 0.000000	 0.000000	 0.360812
								CHANNELS 3 Zrotation Xrotation Yrotation
								JOINT LeftHandIndex1
								{
									OFFSET	 0.000000	 0.000000	 0.086006
									CHANNELS 3 Zrotation Xrotation Yrotation
									JOINT LeftHandIndex2
									{
										OFFSET	 0.000000	 0.000000	 0.047236
										CHANNELS 3 Zrotation Xrotation Yrotation
										JOINT LeftHandIndex3
										{
											OFFSET	-0.004284	-0.000551	 0.038166
											CHANNELS 3 Zrotation Xrotation Yrotation
											End Site
											{
												OFFSET	-0.004284	-0.000551	 0.038166
											}
										}
									}
								}
							}
						}
					}
				}
				JOINT Neck
				{
					OFFSET	 0.000000	 0.000000	 0.176489
					CHANNELS 3 Zrotation Xrotation Yrotation
					JOINT Head
					{
						OFFSET	 0.000000	-0.001747	 0.077940
						CHANNELS 3 Zrotation Xrotation Yrotation
						End Site
						{
							OFFSET	 0.000000	-0.001747	 0.077940
						}
					}
				}
				JOINT RightShoulder
				{
					OFFSET	-0.080363	 0.000306	 0.159706
					CHANNELS 3 Zrotation Xrotation Yrotation
					JOINT RightArm
					{
						OFFSET	 0.000000	 0.000000	 0.164196
						CHANNELS 3 Zrotation Xrotation Yrotation
						JOINT RightForeArm
						{
							OFFSET	 0.000000	 0.000000	 0.365611
							CHANNELS 3 Zrotation Xrotation Yrotation
							JOINT RightHand
							{
								OFFSET	 0.000000	 0.000000	 0.360648
								CHANNELS 3 Zrotation Xrotation Yrotation
								JOINT RightHandIndex1
								{
									OFFSET	 0.000000	 0.000000	 0.069977
									CHANNELS 3 Zrotation Xrotation Yrotation
									JOINT RightHandIndex2
									{
										OFFSET	 0.000000	 0.000000	 0.052305
										CHANNELS 3 Zrotation Xrotation Yrotation
										JOINT RightHandIndex3
										{
											OFFSET	 0.009002	-0.000782	 0.042196
											CHANNELS 3 Zrotation Xrotation Yrotation
											End Site
											{
												OFFSET	 0.009002	-0.000782	 0.042196
											}
										}
									}
								}
							}
						}
					}
				}
			}
		}
	}
}
MOTION
Frames:    9
Frame Time: 0.03333334
-0.058893	-2.244404	 1.248052	 4.302466	-1.672937	-3.358896	 17.456890	-5.366386	-174.705700	 0.463320	-29.176560	 0.044196	 23.790610	 71.976010	-26.727800	-2.370993	 31.346080	-0.063849	-20.975990	-30.783780	-176.016800	 10.137390	-51.626640	 8.519379	 3.831687	 63.330400	 2.530053	 2.358066	 33.133280	 0.106323	 3.172738	 8.925132	 1.432992	 0.236853	 2.710731	 1.473051	-4.189269	-2.549234	-1.937335	-93.805060	 58.894620	 175.680900	 12.601410	 31.662020	-40.785980	 8.251962	-1.074303	-6.570269	 26.043020	-42.779000	 12.679720	-4.869370	 19.241930	-2.786460	-3.889304	 21.373090	 2.210661	-4.808246	 5.545645	 0.146961	-0.115258	-5.028144	 0.164081	-6.311526	 2.225330	 2.518812	 89.820860	 61.596300	-179.907900	-19.497020	 50.214920	 13.246600	-10.305820	-2.471693	 10.368350	-29.656260	-27.618640	-11.441700	 6.302068	 25.744080	-0.569086	 1.763852	 45.665340	-6.884386	 0.389477	 24.873030	 3.638177
-0.062187	-2.317830	 1.245728	 5.670657	-0.740138	-3.304156	 15.901640	-2.403337	-175.963200	 1.112835	-27.814980	 0.354702	 22.063450	 74.061710	-25.251320	-2.368601	 31.747050	-0.072915	-25.154120	-34.421670	-179.423300	 9.736094	-40.854320	 6.908666	-0.811330	 65.091020	 6.831715	 2.359000	 32.995910	 0.103125	-6.573453	 8.380841	 1.365873	-0.351799	 2.731206	 1.123023	-3.269257	-2.822002	-1.391693	-94.094890	 59.018680	 175.047200	 10.125120	 27.661190	-42.536620	 10.745330	-2.014800	-8.960169	 26.321890	-38.524590	 8.835772	-4.864646	 19.368050	-2.795731	-3.875367	 21.551530	 2.196498	-4.804908	 5.584997	 0.144657	-0.041662	-5.103002	 0.227438	-5.162184	 2.198932	 2.323963	 89.720570	 61.720480	 179.852800	-19.318530	 52.483640	 9.507707	-14.338810	-4.236662	 13.878670	-30.324270	-21.228990	-9.337821	 6.278481	 23.705270	-0.549472	 2.024358	 43.553030	-7.116485	 0.769584	 23.198620	 3.446820
-0.066789	-2.403493	 1.235804	 6.492000	 0.497652	-3.639036	 14.606080	 0.832947	-177.036200	 1.456024	-26.846900	 0.498312	 20.131500	 77.520700	-23.299150	-2.364765	 32.361730	-0.086947	-27.248860	-36.392650	 177.246000	 9.601788	-26.259890	 4.624135	-4.025238	 63.865670	 8.583258	 2.360927	 32.708770	 0.096475	-17.015970	 7.388824	 1.563372	-0.960897	 3.008894	 0.788107	-2.185413	-3.102857	-0.840179	-94.396320	 58.933070	 174.417600	 7.340980	 23.932290	-44.228680	 13.495410	-3.402654	-11.493940	 26.876260	-31.585950	 6.187790	-4.843082	 19.875970	-2.820833	-3.846964	 21.912450	 2.167634	-4.787938	 5.784713	 0.132936	-0.001264	-5.197475	 0.322609	-3.980027	 2.146308	 2.321222	 89.536480	 61.944410	 179.408100	-18.449930	 54.507510	 6.340539	-19.761120	-5.878615	 15.780370	-31.278340	-12.079610	-6.590146	 6.231137	 20.855980	-0.634566	 2.295909	 41.154250	-7.355246	 1.384348	 20.385760	 3.157212
-0.072672	-2.480000	 1.221469	 6.703218	 0.931147	-3.941609	 13.844770	 4.590006	-178.298400	 1.641528	-26.121320	 0.567508	 14.889670	 79.934440	-17.857360	-2.350827	 34.363500	-0.133668	-25.835300	-40.654900	 175.751400	 9.617972	-21.223610	 3.792231	-3.031794	 69.704930	 6.254499	 2.345424	 34.851320	 0.146944	-25.763480	 6.905110	 1.889622	-1.431584	 3.565571	 0.352875	-1.123982	-3.373961	-0.300536	-94.511840	 58.874580	 174.181400	 4.996083	 22.170430	-45.524260	 15.987620	-4.846252	-13.518940	 26.145030	-24.291640	 3.123545	-4.830862	 20.354980	-2.892601	-3.808927	 22.390470	 2.129004	-4.755312	 6.167207	 0.110304	 0.055498	-5.328675	 0.349341	-2.884816	 2.053169	 2.227068	 89.405080	 62.017730	 179.088900	-16.715090	 55.292580	 5.210673	-25.172630	-4.955504	 13.521160	-31.556750	-3.361331	-4.663787	 6.180269	 17.897110	-0.711673	 2.679063	 37.382710	-7.685563	 2.012830	 17.380340	 2.888290
-0.081825	-2.576905	 1.205735	 7.085935	 0.949218	-3.732864	 12.566190	 8.852852	 179.541800	 2.219009	-26.437050	 0.831132	 2.602762	 80.557430	-5.521850	-2.295417	 40.231490	-0.281851	-25.208700	-43.097010	 174.201800	 9.874887	-19.883660	 3.653472	-3.293035	 67.486330	 6.205637	 2.338158	 35.742630	 0.168548	-35.121820	 6.833211	 1.849818	-2.051043	 3.261563	-0.275160	 0.016693	-3.364342	 0.300521	-94.524700	 59.157810	 174.107100	 3.057109	 21.795850	-45.624960	 19.120170	-6.603531	-15.494790	 24.785230	-17.556820	-1.068997	-4.872231	 20.584590	-3.201164	-3.768606	 22.890760	 2.088058	-4.696946	 6.846184	 0.069554	 0.168004	-5.469439	 0.290137	-1.579296	 2.052954	 1.980075	 89.356360	 61.710300	 178.982800	-14.715690	 55.832810	 1.352889	-30.166400	-6.725561	 15.480080	-30.655400	 5.454271	-2.701429	 6.182395	 14.439660	-0.480167	 2.993888	 33.898570	-7.950053	 2.699169	 13.957460	 2.628369
-0.093320	-2.684063	 1.195675	 7.764820	 0.333854	-2.316486	 12.148500	 13.966430	 175.436700	 1.002090	-26.428770	 0.289032	-7.714389	 74.414750	 7.757738	-2.081226	 52.348290	-0.674811	-22.529220	-39.629820	 173.989400	 6.275248	-21.922020	 2.637201	-8.007226	 60.307010	 17.336700	 2.338372	 35.718650	 0.167950	-43.237650	 6.993084	 0.700641	-2.966638	 2.511034	-1.136511	 0.941589	-2.694551	 0.795968	-94.427890	 59.262880	 174.297300	 2.370233	 21.916680	-44.185160	 21.398720	-8.336708	-17.103810	 23.044610	-10.149960	-4.570806	-4.895337	 20.797760	-3.405118	-3.745897	 23.169560	 2.065010	-4.608798	 7.859043	 0.007338	 0.304654	-5.452185	 0.256826	-0.344418	 2.315954	 2.311070	 89.302220	 61.406640	 178.865700	-13.328280	 55.846970	-0.934806	-34.154510	-8.467693	 17.071530	-29.382460	 12.303620	-0.618613	 6.301250	 11.100690	 0.186222	 3.204091	 31.355300	-8.122483	 3.257378	 11.075140	 2.444697
-0.105382	-2.786147	 1.192749	 9.533611	-0.576770	-0.880466	 11.397260	 13.040210	 171.395800	 0.601200	-35.301130	 0.143588	-6.315616	 62.642000	 11.156980	-1.397230	 67.121960	-1.560387	-22.688630	-36.564830	 173.590500	 7.575098	-27.435310	 3.860863	-10.649560	 53.653470	 22.435910	 2.342497	 35.217670	 0.155775	-48.258780	 7.284472	-0.332951	-3.574118	 2.201936	-1.821616	 1.437929	-2.102525	 1.133894	-94.303390	 59.190160	 174.576000	 3.304118	 22.380840	-42.799370	 23.350340	-9.758360	-18.232480	 21.698630	-3.553881	-7.399431	-4.849302	 21.148380	-3.251300	-3.699127	 23.737340	 2.017535	-4.526941	 8.786081	-0.051135	 0.397359	-5.355221	 0.263394	 0.507093	 2.801954	 2.454197	 89.086710	 61.093860	 178.374500	-12.189990	 55.526920	-1.705952	-35.762540	-9.883969	 18.195140	-27.229150	 15.795360	 1.827503	 6.359648	 8.928473	 0.462301	 3.370296	 29.210780	-8.256108	 3.585046	 9.346513	 2.349048
-0.118752	-2.883212	 1.196389	 10.232650	-1.044415	 0.716747	 16.171490	 5.833143	 164.667600	 2.140968	-49.897910	 1.368012	-1.860382	 45.105540	 17.615650	-1.472141	 66.143430	-1.472527	-25.422560	-32.989070	 172.261800	 6.874197	-32.879250	 4.160608	-6.982844	 53.545850	 19.161740	 2.367317	 31.701690	 0.073400	-49.070130	 7.382113	-1.292390	-3.639916	 1.556181	-2.328734	 1.855317	-1.513091	 1.280516	-94.099760	 59.887920	 174.909100	 5.414577	 24.397810	-41.113370	 26.351160	-10.913640	-19.033960	 20.358470	-0.159830	-9.235175	-4.767828	 21.440660	-2.858361	-3.626135	 24.606250	 1.943481	-4.469568	 9.427990	-0.092499	 0.347779	-5.371511	 0.175148	 1.043009	 3.144326	 2.427599	 88.993680	 60.266780	 178.207100	-11.648530	 54.689130	-1.468114	-35.807660	-11.021020	 19.011440	-23.315060	 15.844790	 2.969745	 6.399091	 8.939091	 0.620072	 3.380357	 29.076980	-8.264110	 3.673085	 8.877862	 2.324924
-0.128386	-2.992899	 1.207863	 7.809982	-2.056052	 1.986032	 23.075810	-5.102887	 159.705100	-3.576090	-65.557010	-3.577646	 7.866382	 41.321400	 9.350848	-2.378074	 30.065610	-0.035251	-23.750430	-27.410430	 172.071000	 5.808794	-36.006570	 3.871524	-5.733222	 58.966790	 17.807280	 2.374330	 30.484700	 0.046010	-44.258850	 8.228812	-2.129997	-3.039365	 1.237944	-2.065738	 2.614514	-1.127975	 0.972856	-94.011050	 59.582900	 175.147700	 7.414633	 26.787440	-39.009420	 28.684810	-11.735840	-19.554980	 15.971280	-1.088191	-7.844240	-4.688687	 22.495590	-2.709820	-3.542048	 25.582110	 1.858212	-4.372902	 10.494960	-0.162891	 0.209179	-5.372356	 0.135973	 1.330337	 3.070946	 2.582510	 89.237050	 60.319160	 178.758300	-12.576890	 53.160580	 3.552178	-35.253730	-11.825350	 19.547770	-17.890570	 11.832020	 2.505234	 6.397295	 11.416040	 0.598511	 3.165943	 31.830510	-8.091463	 3.406963	 10.289170	 2.399892
